Patient4_TMGait_0pt6_01_left_36_EMG.mot
version=1
nRows=34
nColumns=33
inDegrees=no
endheader
time	1LAddLong	2LGlutMax	3LGlutMed	4LIliopsoas	5LSemiMemb	6LBicFemLong	7LRecFem	8LVastMed	9LVastLat	10LGasMed	11LTibAnt	12lTibPost	13LPeroneusLong	14LSol	15LExtDigLong	16LFlexDigLong	17RAddLong	18RGlutMax	19RGlutMed	20RIliopsoas	21RSemiMemb	22RBicFemLong	23RRecFem	24RVastMed	25RVastLat	26RGasMed	27RTibAnt	28RTibPost	29RPeroneusLong	30RSol	31RExtDigLong	32RFlexDigLong
44.252	0.041046	0.50247	-0.004272	-0.021973	0.022583	0.07843	-0.29465	0.001526	-0.12222	0.24216	0.044403	0.15762	0.035095	0.06012	0.32181	0.82901	-0.035858	0.38589	0.14069	0.23544	-0.019684	-0.17014	0.86304	-0.079193	-0.068665	-0.000916	-0.53131	-0.00885	0.11673	0.33325	0.000153	-0.014954
44.253	0.02594	0.46814	-0.15945	-0.020447	0.007019	0.10635	-0.42847	0.011444	-0.11108	0.31525	0.013733	-0.079346	0.081482	-0.4364	0.14648	0.18219	-0.086365	0.25711	-0.06073	0.25284	0.000305	-0.25146	0.90485	-0.097046	-0.088806	-0.007782	-0.52643	-0.01358	0.097961	0.21744	0.003052	-0.012054
44.254	0.021057	0.39337	-0.31189	0.001678	0.001221	0.10773	-0.67123	0.015869	-0.076447	0.40344	-0.007935	0.36926	0.07843	-0.22201	0.14236	-0.16495	-0.08667	0.16571	-0.25833	0.1973	0.001526	-0.35996	0.85724	-0.1648	-0.082855	-0.009766	0.14374	-0.011139	-0.084686	0.18295	0.001984	-0.010223
44.255	0.016937	0.36728	-0.088348	0.00885	0.017395	0.1004	-0.77454	0.031128	-0.016785	0.61356	0.00351	0.058746	0.031281	-0.004272	0.026093	-0.36224	-0.04425	0.088043	-0.13718	0.11581	0.001526	-0.28305	0.83405	-0.13626	-0.06958	-0.00351	0.48721	-0.010223	-0.1384	0.054474	0.002441	-0.016785
44.256	0.014496	0.31311	0.023651	-0.005035	-0.008392	0.077515	-0.7663	0.060272	0.089111	0.47089	-0.010529	0.077362	0.090942	0.079651	0.066376	0.67261	0.083008	0.031433	-0.082397	0.14648	0.024567	-0.19867	0.77377	-0.17563	-0.061188	0.004578	0.081177	-0.008087	0.075378	-0.15015	0.002136	-0.002136
44.257	0.005341	0.29388	-0.02182	-0.019836	-0.086823	0.076752	-0.78308	0.065765	0.10651	0.28473	-0.009613	-0.028534	0.078888	0.26184	0.0737	-2.2951	0.13001	-0.067444	-0.06897	0.11749	0.019073	0.007324	0.72449	-0.076904	-0.032654	0.006866	-0.42374	-0.01236	0.35889	-0.18173	0.005646	-0.00412
44.258	0.012054	0.3038	-0.015259	-0.01297	-0.077057	0.062714	-0.85785	0.074463	0.065155	0.36423	-0.011139	0.13336	0.084076	0.37628	0.074158	1.1787	0.14481	-0.16907	-0.024109	0.049591	0.063477	0.005493	0.71152	-0.033875	-0.028076	-0.000153	0.26535	-0.006866	0.16266	-0.15091	0.004883	-0.010834
44.259	0.024567	0.38589	-0.009308	-0.013733	-0.031433	0.070648	-0.96802	0.064697	0.027771	0.39551	-0.00824	0.10376	0.10056	0.15121	0.053101	0.72449	0.12421	-0.21011	-0.069733	-0.083466	0.073853	-0.033264	0.61661	-0.005188	0.002136	-0.008392	0.12177	-0.007019	-0.07782	-0.050049	0.003204	-0.014954
44.26	0.004425	0.44495	0.025482	-0.003815	0.014954	0.10422	-1.0199	0.037079	-0.092163	0.4364	-0.006104	-0.054779	0.078278	-0.21255	0.023041	-0.19577	0.15381	-0.29312	-0.14877	-0.24262	0.061035	-0.022125	0.56854	0.041504	0.021667	-0.004578	0.28595	-0.009003	-0.18219	-0.002136	0.006104	-0.012207
44.261	-0.002747	0.55481	-0.10696	0.007935	-0.013885	0.22293	-0.9819	-0.007782	-0.16419	0.19989	0.019226	-0.08255	0.038757	-0.43778	0.023651	-0.15381	0.18265	-0.29541	-0.39566	-0.23468	0.037537	-0.027008	0.60699	0.0383	0.028534	-0.010223	0.090027	-0.011749	-0.092468	0.1088	0.002136	-0.014191
44.262	-0.002441	0.62943	-0.17288	0.018005	-0.029907	0.18051	-1.0191	-0.019989	-0.036163	-0.092926	0.034637	-0.047455	0.046539	-0.40909	0.001984	0.19775	0.11917	-0.33249	-0.58518	-0.18524	0.059509	0.007782	0.53986	0.092621	0.040894	-0.003357	-0.093231	-0.010376	-0.1358	0.11292	0.010223	-0.016327
44.263	-0.002747	0.77759	-0.31509	-0.01358	-0.01358	0.077057	-1.1188	-0.019531	0.070801	-0.30502	0.036621	-0.029755	0.056915	-0.59662	0.080872	0.24597	0.063934	-0.33859	-0.61478	-0.18219	0.072784	-0.005341	0.48813	0.14786	0.055237	-0.009766	-0.024109	-0.009308	-0.25207	0.11154	0.006561	-0.015259
44.264	-0.006256	0.80124	-0.1915	-0.020294	0.040131	-0.050964	-1.1794	0.029297	0.16632	-0.43106	0.042725	-0.031738	0.065002	-0.75165	0.14542	-0.012054	-0.001984	-0.41534	-0.36728	-0.14633	0.067596	0.03006	0.49149	0.14008	0.050049	-0.00946	-0.040283	-0.009308	-0.22492	0.16342	0.005951	-0.016174
44.265	-0.012207	0.91217	0.083923	-0.010834	0.032501	-0.12131	-1.2448	0.032196	0.24735	-0.35431	0.029602	-0.015717	-0.005646	-0.57571	0.14832	0.029144	-0.009155	-0.45593	-0.32394	-0.17181	0.082245	0.060577	0.46585	0.19058	0.063324	-0.010223	-0.055084	-0.008545	-0.16083	0.14069	-0.001373	-0.014496
44.266	-0.011139	0.98663	0.31662	0.004883	0.027313	-0.020752	-1.2578	0.018158	0.25085	-0.2388	0.018768	-0.01297	-0.040588	-0.43518	0.10559	-0.2121	-0.00412	-0.50339	-0.27618	-0.12405	0.099335	0.1442	0.4953	0.16205	0.037842	-0.010986	-0.19318	-0.00824	-0.02243	0.15564	0.003357	-0.016479
44.267	-0.014801	1.1292	0.31586	0.001373	-0.009003	0.057373	-1.3577	0.016174	0.19516	-0.12558	-0.011444	-0.007019	-0.072479	-0.29587	0.084686	-0.32761	-0.056763	-0.54474	-0.32516	-0.085907	0.084991	0.15045	0.50583	0.25146	0.037537	-0.00061	-0.13626	-0.005493	0.008392	0.16968	0.003357	-0.022125
44.268	-0.013275	1.1441	0.26367	-0.007935	-0.11643	0.12817	-1.3448	-0.009613	0.13107	-0.018616	-0.038757	-0.023499	-0.065765	-0.24155	0.11566	-0.21149	-0.068359	-0.63492	-0.29083	0.04776	0.058746	0.12238	0.47882	0.24292	0.037537	-0.007629	0.23392	-0.005646	-0.00473	0.078125	0.000916	-0.01709
44.269	-0.016632	1.147	0.15579	0.005646	-0.21149	0.085297	-1.2804	-0.01709	0.13916	-0.045471	-0.03479	-0.037537	-0.065155	-0.20874	0.16708	0.052032	-0.070648	-0.63919	-0.39352	0.13245	0.040283	0.12177	0.43457	0.15335	0.028534	-0.002289	0.1619	-0.005798	0.00885	0.075378	-0.001831	-0.013428
44.27	-0.01297	1.096	0.00885	0.010834	-0.21454	0.15396	-1.2688	-0.035248	0.23926	-0.067139	0.1059	-0.031586	-0.012665	-0.11932	0.16708	0.080719	-0.070343	-0.63309	-0.24551	0.19043	0.037079	0.13458	0.43915	0.14343	0.016327	-0.01297	0.094604	-0.008392	-0.021667	0.072632	0.006104	-0.010071
44.271	-0.016785	1.0143	0.013275	0.006866	0.013275	0.29037	-1.244	-0.014648	0.24582	-0.1001	0.006866	-0.030212	0.066681	0.028229	-0.015259	-0.031891	-0.019226	-0.65155	-0.25192	0.25162	0.013428	0.12161	0.46539	0.11841	-0.002899	-0.010223	-0.086365	-0.00412	0.035553	0.038757	0.002289	-0.009766
44.272	-0.009155	1.0144	0.029144	0.005951	0.060577	0.38467	-1.2425	-0.02243	0.2507	-0.085144	-0.045929	-0.00412	0.017242	0.074005	-0.028992	-0.077209	0.020142	-0.66177	-0.12955	0.21225	0.001984	0.088348	0.4512	0.14816	-0.010223	-0.003815	-0.66132	-0.000763	0.00885	-0.03067	0.001526	-0.01236
44.273	0.003204	0.81909	-0.10483	0.010986	-0.019073	0.38406	-1.1179	-0.01297	0.20538	-0.089722	0.019073	-0.039825	-0.085449	0.077667	-0.054169	-0.090485	0.037537	-0.74905	-0.090485	0.066223	-0.011749	0.039825	0.44037	0.016479	-0.018921	-0.010071	-0.051422	-0.002136	-0.16708	-0.055542	0.007629	-0.016785
44.274	0.004272	0.50003	-0.12192	-0.010223	-0.052185	0.26321	-1.0684	-0.010376	0.19089	-0.13748	0.19318	-0.037231	-0.14954	0.075378	0.029602	-0.090485	0.068512	-0.73303	-0.13748	0.039063	-0.006561	-0.014343	0.47897	-0.068512	-0.023499	-0.011292	0.29694	-0.00412	-0.25574	-0.062103	0.002899	-0.015106
44.275	0.015564	0.23544	-0.10696	-0.00885	-0.015411	0.073395	-1.0054	-0.008545	0.2681	-0.19226	0.16693	-0.03479	-0.039063	0.15579	0.083008	-0.064392	0.061646	-0.79544	-0.19424	-0.007172	-0.045776	0.003357	0.42618	-0.14481	-0.019531	-0.014801	0.26535	-0.002747	-0.25513	-0.12253	0.002747	-0.016327
44.276	0.005188	0.11124	-0.046997	-0.003052	0.010071	0.10117	-0.9317	-0.012207	0.19623	-0.26276	0.093842	-0.038147	0.006104	0.20508	0.28732	-0.02533	0.052338	-0.84793	-0.1265	-0.040894	-0.054932	0.024719	0.36316	-0.18005	-0.037689	-0.012054	0.45609	-0.003967	-0.085907	-0.17944	0.002594	-0.00885
44.277	0.01709	0.10498	0.040436	-0.000458	-0.008545	-0.0354	-0.88303	-0.010223	0.15533	-0.26123	-0.024261	-0.0354	-0.074768	0.14084	0.12848	0.27283	0.036469	-0.85907	-0.15015	-0.084076	-0.086517	0.010071	0.37277	-0.22186	-0.041962	-0.003052	0.76782	-0.003357	-0.035706	-0.18799	0.003204	-0.014191
44.278	0.024872	0.11765	-0.049896	0.006256	0.018616	-0.39169	-0.85083	-0.008087	0.2359	-0.17487	-0.12299	-0.031738	-0.1091	0.13611	-0.081787	-0.46188	0.025177	-0.97885	-0.19608	0.009766	-0.084839	-0.024109	0.45502	-0.2446	-0.02655	0.007019	0.18433	-0.005341	0.068665	-0.19134	-0.000305	-0.002594
44.279	0.016479	0.12024	-0.08728	0.011444	0.016632	-0.29007	-0.81619	0.01358	0.22827	-0.1358	-0.095673	-0.032654	-0.168	0.15549	-0.23575	-0.012207	0.026398	-1.1845	-0.43793	0.042725	-0.10193	-0.006256	0.44403	-0.23193	-0.027771	0.006409	-0.46967	-0.001678	-0.029297	-0.19653	0.001526	-0.015259
44.28	0.00885	0.15106	-0.19257	0.015869	0.077209	-0.005188	-0.79758	0.019684	0.21103	-0.17746	-0.072784	-0.037537	-0.24735	0.12116	-0.063782	0.46722	0.024261	-1.2669	-0.49225	-0.009003	-0.12589	0.051422	0.45242	-0.2359	-0.019379	-0.003052	-0.2272	0.001221	-0.15472	-0.060272	0.00412	-0.019226
44.281	0.002899	0.17807	-0.17578	-0.003967	0.044708	0.11093	-0.7016	0.015411	0.22034	-0.24139	-0.068054	-0.041504	-0.16525	0.17654	-0.28519	-0.91553	0.047302	-1.3948	-0.37338	-0.12207	-0.1535	0.096893	0.38315	-0.21835	-0.021362	-0.006866	0.019989	-0.002747	-0.11002	-0.021057	0.002747	-0.020447
44.282	0.005646	0.18921	-0.16113	-0.002289	0.039063	-0.029602	-0.65872	0.002747	0.16403	-0.48508	-0.041656	-0.054779	0.014648	0.1709	-0.31708	0.23483	0.10986	-1.5532	-0.26596	0.004272	-0.1181	0.14832	0.233	-0.17425	-0.021667	-0.006104	0.54336	-0.00061	-0.097198	-0.03479	0.002899	-0.009766
44.283	0.021057	0.11871	-0.058441	0.007782	0.002747	-0.092926	-0.65094	-0.003815	0.15839	-0.46936	-0.040283	-0.013733	0.057526	0.23193	-0.22385	-0.17777	0.074768	-1.6855	-0.32638	0.077362	-0.10437	0.2684	0.054474	-0.15076	-0.015259	-0.015869	1.282	0.001526	-0.11414	-0.006866	0.001831	-0.024414
44.284	0.019379	0.17441	-0.049896	-0.006104	-0.037537	0.045013	-0.62164	-0.000763	0.2066	0.10025	-0.024261	0.009918	0.16892	0.31616	-0.1886	0.77637	0.049591	-1.8201	-0.31723	0.001678	-0.090027	0.30701	0.073547	-0.075378	-0.026398	-0.018616	1.7368	-0.005951	-0.28427	0.044556	-0.003967	-0.014648
44.285	0.011902	0.31326	-0.079803	0.002441	-0.033417	0.073242	-0.54886	-0.004272	0.15884	0.66162	-0.011139	-0.002136	0.19791	0.44968	-0.15274	0.2475	-0.033264	-1.8347	-0.2652	-0.14938	-0.062103	0.27985	0.11337	-0.029144	-0.015259	-0.024872	1.8188	-0.001984	-0.45731	0.050201	0.000153	-0.018158
